The King of Comedy (1983)

Director: Martin Scorsese

The King of Comedy is a 1983 American black comedy film starring Robert De Niro and Jerry Lewis, and directed by Martin Scorsese. The subject of the movie is celebrity stalking. It was released in Iceland on December 19, 1982 and subsequently, on February 18, 1983 in the United States by 20th Century Fox.

After Raging Bull was completed, Scorsese was keen to do a pet project of his, The Last Temptation of Christ, and wanted De Niro to play Jesus Christ. De Niro was not interested and became determined that their next collaboration should be a comedy. He had purchased the rights of a script by a film critic, Paul D. Zimmermann. Scorsese pondered whether he could face shooting another film, particularly with a looming strike by the Writers Guild of America. Producer Arnon Milchan knew he could do the project away from Hollywood interference by filming entirely on location in New York and deliver it on time with the involvement of a smaller film company. In the biography overview of his work, Scorsese on Scorsese, the director had high praise for Jerry Lewis, stating that during their first conversation before shooting, Lewis was extremely professional and had assured him before shooting that there would be no ego clashes or difficulties. Scorsese said he felt Lewis' performance in the film was vastly underrated and deserved more acclaim.

According to an interview with Lewis in the February 7, 1983 edition of People Magazine, he claimed that Scorsese and De Niro employed method acting tricks, including making a slew of anti-Semitic epithets during the filming in order to "pump up Lewis' anger." Lewis described making the film as a pleasurable experience and noted that he got along well with both Scorsese and De Niro. Lewis said that before the making of the film he was invited to collaborate on certain aspects of the script dealing with celebrity life. His suggested ending of Rupert Pupkin killing Jerry, however, was turned down. As a result, Lewis felt that the film, while good, did not have a "finish". Scorsese stated in an interview on the DVD release that Lewis suggested the brief scene where Jerry Langford is accosted by an old lady for autographs and she, upon Langford's polite stifle, suddenly screams out "You should only get cancer!" This was based on a real life incident that had happened to Lewis. Scorsese also stated that Lewis directed the actress playing the old lady in order to get the timing right.

Media Info:
General
Complete name                    : J:\Seeding\The King of Comedy (1983)[DVDRip][big_dad_e™]\The King of Comedy (1983)[DVDRip][big_dad_e™].AVI
Format                           : AVI
Format/Info                      : Audio Video Interleave
File size                        : 1.39 GiB
Duration                         : 1h 48mn
Overall bit rate                 : 1 831 Kbps

Video
ID                               : 0
Format                           : MPEG-4 Visual
Format profile                   : Simple@L3
Format settings, BVOP            : No
Format settings, QPel            : No
Format settings, GMC             : No warppoints
Format settings, Matrix          : Default (H.263)
Codec ID                         : XVID
Codec ID/Hint                    : XviD
Duration                         : 1h 48mn
Bit rate                         : 1 498 Kbps
Width                            : 720 pixels
Height                           : 464 pixels
Display aspect ratio             : 16:9
Frame rate                       : 23.976 fps
Color space                      : YUV
Chroma subsampling               : 4:2:0
Bit depth                        : 8 bits
Scan type                        : Progressive
Bits/(Pixel*Frame)               : 0.187
Stream size                      : 1.14 GiB (82%)
Writing library                  : XviD 

Audio
ID                               : 1
Format                           : MPEG Audio
Format version                   : Version 1
Format profile                   : Layer 3
Mode                             : Joint stereo
Mode extension                   : MS Stereo
Codec ID                         : 55
Codec ID/Hint                    : MP3
Duration                         : 1h 48mn
Bit rate mode                    : Constant
Bit rate                         : 320 Kbps
Channel(s)                       : 2 channels
Sampling rate                    : 48.0 KHz
Stream size                      : 249 MiB (17%)
Alignment                        : Split accross interleaves
Interleave, duration             : 24 ms (0.58 video frame)
Interleave, preload duration     : 287 ms
Writing library                  : LAME3.98

File Scan:
Malwarebytes' Anti-Malware 1.50.1.1100
www.malwarebytes.org

Database version: 5758
2/13/2011 11:41:57 PM
mbam-log-2011-02-13 (23-41-57).txt

Scan type: Quick scan
Objects scanned: 5
Time elapsed: 32 second(s)

Memory Processes Infected: 0
Memory Modules Infected: 0
Registry Keys Infected: 0
Registry Values Infected: 0
Registry Data Items Infected: 0
Folders Infected: 0
Files Infected: 0

Memory Processes Infected:
(No malicious items detected)

Memory Modules Infected:
(No malicious items detected)

Registry Keys Infected:
(No malicious items detected)

Registry Values Infected:
(No malicious items detected)

Registry Data Items Infected:
(No malicious items detected)

Folders Infected:
(No malicious items detected)

Files Infected:
(No malicious items detected)

When using TPB please read these important notes:
  
01- Anti-malware apps may warn about keygens, patches, cracks, etc., because of 
    their capabilities, (generating codes, etc.). Sometimes they're added to 
    the virus/spyware database and will be detected as malware. If you don't trust
    the keygens, patches, cracks, etc., don't use them. 
    
02- Before running .exe-files, keygens, patches, cracks, etc., always check first 
    if they can be unpacked. Often some third party added a virus to the 
    original file, repacked it and uploaded it again.

03- Letting anti-malware apps send scan results to their companies can cause
    keygens, patches, cracks, etc., to be added to their virus-database.

04- Firewalls which are set to automatically determine connections will allow 
    apps & malware!. Avoid this by manually configuring your firewall.

05- Usually (new) torrents with many downloads and seeders in a brief period is
    suspicious! Torrents with the Skull & Crossbones icon are trusted.

06- Some people use multiple accounts and post fake comments 
    and/or files trying to spread confusion. They seldom seriously
    comment or have any torrents, or a just a few to look passable.

07- Clicking on unknown links can cause malware to be installed on your machine.
  
08- In general often there are more fake and negative comments than reliable and
    positive comments.

09- In some countries uploading/downloading copyright protected material is 
    forbidden, but showing some appreciation to reliable up-loaders is not.

10- Posting fake and negative comments or fake/infected uploads on TPB can result
    in getting banned from TPB!

Requests?  Find me on SuprBay. http://forum.suprbay.org
 

For reporting bad or suspicious torrents:  
http://forum.suprbay.org/forumdisplay.php?fid=29

For more of my torrents: 
https://thepiratebay.org/user/big_dad_e/  (Secured)

All torrents scanned with:
Norton Anti-virus
Malwarebytes' Anti-malware
 
http://www.pirate-party.us/

ALWAYS SEED & THANKS SEEDERS!